<svg width="1400" height="1000" xmlns="http://www.w3.org/2000/svg" version="1.1">


<!-- internal style sheet -->
<style type="text/css"><![CDATA[
 rect.background{fill:white}
 rect{fill:none; stroke:rgb(25,25,25); stroke-width:2}
 text{font-family:Helvetica; text-anchor:middle; fill:rgb(25,25,25)}
 line{stroke:rgb(25,25,25); stroke-width:4}
 path{fill:none; stroke:rgb(25,25,25); stroke-width:2}

 path.p0{fill:rgb(0,102,255); stroke:rgb(25,25,25); stroke-width:2}
 path.ps0{fill:rgb(0,77,191); stroke:rgb(20,20,20); stroke-width:2}
 rect.r0{fill:rgb(0,102,255); stroke:rgb(25,25,25); stroke-width:2}
 path.p1{fill:rgb(0,185,255); stroke:rgb(25,25,25); stroke-width:2}
 path.ps1{fill:rgb(0,139,191); stroke:rgb(20,20,20); stroke-width:2}
 rect.r1{fill:rgb(0,185,255); stroke:rgb(25,25,25); stroke-width:2}
 path.p2{fill:rgb(0,255,241); stroke:rgb(25,25,25); stroke-width:2}
 path.ps2{fill:rgb(0,191,181); stroke:rgb(20,20,20); stroke-width:2}
 rect.r2{fill:rgb(0,255,241); stroke:rgb(25,25,25); stroke-width:2}
 path.p3{fill:rgb(0,255,158); stroke:rgb(25,25,25); stroke-width:2}
 path.ps3{fill:rgb(0,191,119); stroke:rgb(20,20,20); stroke-width:2}
 rect.r3{fill:rgb(0,255,158); stroke:rgb(25,25,25); stroke-width:2}
 path.p4{fill:rgb(0,255,74); stroke:rgb(25,25,25); stroke-width:2}
 path.ps4{fill:rgb(0,191,56); stroke:rgb(20,20,20); stroke-width:2}
 rect.r4{fill:rgb(0,255,74); stroke:rgb(25,25,25); stroke-width:2}
 path.p5{fill:rgb(9,255,0); stroke:rgb(25,25,25); stroke-width:2}
 path.ps5{fill:rgb(7,191,0); stroke:rgb(20,20,20); stroke-width:2}
 rect.r5{fill:rgb(9,255,0); stroke:rgb(25,25,25); stroke-width:2}
 path.p6{fill:rgb(93,255,0); stroke:rgb(25,25,25); stroke-width:2}
 path.ps6{fill:rgb(70,191,0); stroke:rgb(20,20,20); stroke-width:2}
 rect.r6{fill:rgb(93,255,0); stroke:rgb(25,25,25); stroke-width:2}
 path.p7{fill:rgb(176,255,0); stroke:rgb(25,25,25); stroke-width:2}
 path.ps7{fill:rgb(132,191,0); stroke:rgb(20,20,20); stroke-width:2}
 rect.r7{fill:rgb(176,255,0); stroke:rgb(25,25,25); stroke-width:2}
 path.p8{fill:rgb(255,250,0); stroke:rgb(25,25,25); stroke-width:2}
 path.ps8{fill:rgb(191,188,0); stroke:rgb(20,20,20); stroke-width:2}
 rect.r8{fill:rgb(255,250,0); stroke:rgb(25,25,25); stroke-width:2}
 path.p9{fill:rgb(255,167,0); stroke:rgb(25,25,25); stroke-width:2}
 path.ps9{fill:rgb(191,125,0); stroke:rgb(20,20,20); stroke-width:2}
 rect.r9{fill:rgb(255,167,0); stroke:rgb(25,25,25); stroke-width:2}
 path.p10{fill:rgb(255,83,0); stroke:rgb(25,25,25); stroke-width:2}
 path.ps10{fill:rgb(191,62,0); stroke:rgb(20,20,20); stroke-width:2}
 rect.r10{fill:rgb(255,83,0); stroke:rgb(25,25,25); stroke-width:2}
 path.p11{fill:rgb(255,0,0); stroke:rgb(25,25,25); stroke-width:2}
 path.ps11{fill:rgb(191,0,0); stroke:rgb(20,20,20); stroke-width:2}
 rect.r11{fill:rgb(255,0,0); stroke:rgb(25,25,25); stroke-width:2}
]]></style>

 <rect class="background" width="1000" height="1000"/>
  <!-- cells -->
  <path class="p2" d="M 80 920 L 185 920 L 185 815 L 80 815 L 80 920"/>
  <text x="133" y="880" style="font-size:24px">2,0</text>
  <line x1="80" y1="920" x2="80" y2="815"/>
  <line x1="80" y1="920" x2="185" y2="920"/>
  <path class="p2" d="M 185 920 L 290 920 L 290 815 L 185 815 L 185 920"/>
  <text x="238" y="880" style="font-size:24px">2,1</text>
  <line x1="185" y1="920" x2="290" y2="920"/>
  <path class="p2" d="M 80 815 L 185 815 L 185 710 L 80 710 L 80 815"/>
  <text x="133" y="775" style="font-size:24px">2,2</text>
  <line x1="80" y1="815" x2="80" y2="710"/>
  <path class="p2" d="M 185 815 L 290 815 L 290 710 L 185 710 L 185 815"/>
  <text x="238" y="775" style="font-size:25px">2,3</text>
  <path class="p2" d="M 290 920 L 395 920 L 395 815 L 290 815 L 290 920"/>
  <text x="343" y="880" style="font-size:25px">2,4</text>
  <line x1="290" y1="920" x2="395" y2="920"/>
  <path class="p2" d="M 395 920 L 500 920 L 500 815 L 395 815 L 395 920"/>
  <text x="448" y="880" style="font-size:25px">2,5</text>
  <line x1="395" y1="920" x2="500" y2="920"/>
  <path class="p2" d="M 290 815 L 395 815 L 395 710 L 290 710 L 290 815"/>
  <text x="343" y="775" style="font-size:25px">2,6</text>
  <path class="p2" d="M 395 815 L 500 815 L 500 710 L 395 710 L 395 815"/>
  <text x="448" y="776" style="font-size:26px">2,7</text>
  <path class="p2" d="M 80 710 L 185 710 L 185 605 L 80 605 L 80 710"/>
  <text x="133" y="670" style="font-size:25px">2,8</text>
  <line x1="80" y1="710" x2="80" y2="605"/>
  <path class="p2" d="M 185 710 L 290 710 L 290 605 L 185 605 L 185 710"/>
  <text x="238" y="670" style="font-size:25px">2,9</text>
  <path class="p2" d="M 80 605 L 185 605 L 185 500 L 80 500 L 80 605"/>
  <text x="133" y="565" style="font-size:25px">2,10</text>
  <line x1="80" y1="605" x2="80" y2="500"/>
  <path class="p2" d="M 185 605 L 290 605 L 290 500 L 185 500 L 185 605"/>
  <text x="238" y="566" style="font-size:26px">2,11</text>
  <path class="p2" d="M 500 920 L 605 920 L 605 815 L 500 815 L 500 920"/>
  <text x="553" y="880" style="font-size:25px">2,12</text>
  <line x1="500" y1="920" x2="605" y2="920"/>
  <path class="p2" d="M 605 920 L 710 920 L 710 815 L 605 815 L 605 920"/>
  <text x="658" y="880" style="font-size:25px">2,13</text>
  <line x1="605" y1="920" x2="710" y2="920"/>
  <path class="p2" d="M 500 815 L 605 815 L 605 710 L 500 710 L 500 815"/>
  <text x="553" y="776" style="font-size:26px">2,14</text>
  <path class="p2" d="M 605 815 L 710 815 L 710 710 L 605 710 L 605 815"/>
  <text x="658" y="775" style="font-size:25px">2,15</text>
  <path class="p2" d="M 710 920 L 815 920 L 815 815 L 710 815 L 710 920"/>
  <text x="763" y="880" style="font-size:24px">2,16</text>
  <line x1="710" y1="920" x2="815" y2="920"/>
  <path class="p2" d="M 815 920 L 920 920 L 920 815 L 815 815 L 815 920"/>
  <text x="868" y="880" style="font-size:24px">2,17</text>
  <line x1="920" y1="920" x2="920" y2="815"/>
  <line x1="815" y1="920" x2="920" y2="920"/>
  <path class="p2" d="M 710 815 L 815 815 L 815 710 L 710 710 L 710 815"/>
  <text x="763" y="775" style="font-size:25px">2,18</text>
  <path class="p2" d="M 815 815 L 920 815 L 920 710 L 815 710 L 815 815"/>
  <text x="868" y="775" style="font-size:24px">2,19</text>
  <line x1="920" y1="815" x2="920" y2="710"/>
  <path class="p2" d="M 710 710 L 815 710 L 815 605 L 710 605 L 710 710"/>
  <text x="763" y="670" style="font-size:25px">2,20</text>
  <path class="p2" d="M 815 710 L 920 710 L 920 605 L 815 605 L 815 710"/>
  <text x="868" y="670" style="font-size:25px">2,21</text>
  <line x1="920" y1="710" x2="920" y2="605"/>
  <path class="p2" d="M 710 605 L 815 605 L 815 500 L 710 500 L 710 605"/>
  <text x="763" y="566" style="font-size:26px">2,22</text>
  <line x1="710" y1="500" x2="815" y2="500"/>
  <path class="p2" d="M 815 605 L 920 605 L 920 500 L 815 500 L 815 605"/>
  <text x="868" y="565" style="font-size:25px">2,23</text>
  <line x1="920" y1="605" x2="920" y2="500"/>
  <line x1="815" y1="500" x2="920" y2="500"/>
  <path class="p2" d="M 80 500 L 185 500 L 185 395 L 80 395 L 80 500"/>
  <text x="133" y="460" style="font-size:25px">2,24</text>
  <line x1="80" y1="500" x2="80" y2="395"/>
  <path class="p2" d="M 185 500 L 290 500 L 290 395 L 185 395 L 185 500"/>
  <text x="238" y="461" style="font-size:26px">2,25</text>
  <path class="p2" d="M 80 395 L 185 395 L 185 290 L 80 290 L 80 395"/>
  <text x="133" y="355" style="font-size:25px">2,26</text>
  <line x1="80" y1="395" x2="80" y2="290"/>
  <path class="p2" d="M 185 395 L 290 395 L 290 290 L 185 290 L 185 395"/>
  <text x="238" y="355" style="font-size:25px">2,27</text>
  <path class="p2" d="M 80 290 L 185 290 L 185 185 L 80 185 L 80 290"/>
  <text x="133" y="250" style="font-size:24px">2,28</text>
  <line x1="80" y1="290" x2="80" y2="185"/>
  <path class="p2" d="M 185 290 L 290 290 L 290 185 L 185 185 L 185 290"/>
  <text x="238" y="250" style="font-size:25px">2,29</text>
  <path class="p2" d="M 80 185 L 185 185 L 185 80 L 80 80 L 80 185"/>
  <text x="133" y="145" style="font-size:24px">2,30</text>
  <line x1="80" y1="185" x2="80" y2="80"/>
  <line x1="80" y1="80" x2="185" y2="80"/>
  <path class="p2" d="M 185 185 L 290 185 L 290 80 L 185 80 L 185 185"/>
  <text x="238" y="145" style="font-size:24px">2,31</text>
  <line x1="185" y1="80" x2="290" y2="80"/>
  <path class="p2" d="M 290 290 L 395 290 L 395 185 L 290 185 L 290 290"/>
  <text x="343" y="250" style="font-size:25px">2,32</text>
  <path class="p2" d="M 395 290 L 500 290 L 500 185 L 395 185 L 395 290"/>
  <text x="448" y="251" style="font-size:26px">2,33</text>
  <line x1="500" y1="290" x2="500" y2="185"/>
  <path class="p2" d="M 290 185 L 395 185 L 395 80 L 290 80 L 290 185"/>
  <text x="343" y="145" style="font-size:25px">2,34</text>
  <line x1="290" y1="80" x2="395" y2="80"/>
  <path class="p2" d="M 395 185 L 500 185 L 500 80 L 395 80 L 395 185"/>
  <text x="448" y="145" style="font-size:25px">2,35</text>
  <line x1="500" y1="185" x2="500" y2="80"/>
  <line x1="395" y1="80" x2="500" y2="80"/>
  <path class="p2" d="M 290 710 L 395 710 L 395 605 L 290 605 L 290 710"/>
  <text x="343" y="671" style="font-size:26px">2,36</text>
  <path class="p2" d="M 395 710 L 500 710 L 500 605 L 395 605 L 395 710"/>
  <text x="448" y="671" style="font-size:26px">2,37</text>
  <path class="p2" d="M 290 605 L 395 605 L 395 500 L 290 500 L 290 605"/>
  <text x="343" y="566" style="font-size:26px">2,38</text>
  <path class="p2" d="M 500 710 L 605 710 L 605 605 L 500 605 L 500 710"/>
  <text x="553" y="671" style="font-size:26px">2,40</text>
  <path class="p2" d="M 605 710 L 710 710 L 710 605 L 605 605 L 605 710"/>
  <text x="658" y="671" style="font-size:26px">2,41</text>
  <path class="p2" d="M 605 605 L 710 605 L 710 500 L 605 500 L 605 605"/>
  <text x="658" y="566" style="font-size:26px">2,43</text>
  <line x1="605" y1="500" x2="710" y2="500"/>
  <path class="p2" d="M 290 500 L 395 500 L 395 395 L 290 395 L 290 500"/>
  <text x="343" y="461" style="font-size:26px">2,44</text>
  <path class="p2" d="M 290 395 L 395 395 L 395 290 L 290 290 L 290 395"/>
  <text x="343" y="356" style="font-size:26px">2,46</text>
  <path class="p2" d="M 395 395 L 500 395 L 500 290 L 395 290 L 395 395"/>
  <text x="448" y="356" style="font-size:26px">2,47</text>
  <line x1="500" y1="395" x2="500" y2="290"/>
  <path class="p3" d="M 395 605 L 448 605 L 448 553 L 395 553 L 395 605"/>
  <text x="421" y="585" style="font-size:13px">3,0</text>
  <path class="p3" d="M 448 605 L 500 605 L 500 553 L 448 553 L 448 605"/>
  <text x="474" y="585" style="font-size:13px">3,1</text>
  <path class="p3" d="M 395 553 L 448 553 L 448 500 L 395 500 L 395 553"/>
  <text x="421" y="533" style="font-size:13px">3,2</text>
  <path class="p3" d="M 500 605 L 553 605 L 553 553 L 500 553 L 500 605"/>
  <text x="526" y="585" style="font-size:13px">3,4</text>
  <path class="p3" d="M 553 605 L 605 605 L 605 553 L 553 553 L 553 605"/>
  <text x="579" y="585" style="font-size:13px">3,5</text>
  <path class="p3" d="M 553 553 L 605 553 L 605 500 L 553 500 L 553 553"/>
  <text x="579" y="533" style="font-size:13px">3,7</text>
  <line x1="553" y1="500" x2="605" y2="500"/>
  <path class="p3" d="M 395 500 L 448 500 L 448 448 L 395 448 L 395 500"/>
  <text x="421" y="480" style="font-size:13px">3,8</text>
  <path class="p3" d="M 395 448 L 448 448 L 448 395 L 395 395 L 395 448"/>
  <text x="421" y="428" style="font-size:13px">3,10</text>
  <path class="p3" d="M 448 448 L 500 448 L 500 395 L 448 395 L 448 448"/>
  <text x="474" y="428" style="font-size:13px">3,11</text>
  <line x1="500" y1="448" x2="500" y2="395"/>
  <path class="p4" d="M 448 553 L 474 553 L 474 526 L 448 526 L 448 553"/>
  <text x="461" y="543" style="font-size:7px">4,0</text>
  <path class="p4" d="M 474 553 L 500 553 L 500 526 L 474 526 L 474 553"/>
  <text x="487" y="543" style="font-size:7px">4,1</text>
  <path class="p4" d="M 448 526 L 474 526 L 474 500 L 448 500 L 448 526"/>
  <text x="461" y="517" style="font-size:7px">4,2</text>
  <path class="p4" d="M 500 553 L 526 553 L 526 526 L 500 526 L 500 553"/>
  <text x="513" y="543" style="font-size:7px">4,4</text>
  <path class="p4" d="M 526 553 L 553 553 L 553 526 L 526 526 L 526 553"/>
  <text x="539" y="543" style="font-size:7px">4,5</text>
  <path class="p4" d="M 526 526 L 553 526 L 553 500 L 526 500 L 526 526"/>
  <text x="539" y="517" style="font-size:7px">4,7</text>
  <line x1="526" y1="500" x2="553" y2="500"/>
  <path class="p4" d="M 448 500 L 474 500 L 474 474 L 448 474 L 448 500"/>
  <text x="461" y="490" style="font-size:7px">4,8</text>
  <path class="p4" d="M 448 474 L 474 474 L 474 448 L 448 448 L 448 474"/>
  <text x="461" y="464" style="font-size:7px">4,10</text>
  <path class="p4" d="M 474 474 L 500 474 L 500 448 L 474 448 L 474 474"/>
  <text x="487" y="464" style="font-size:7px">4,11</text>
  <line x1="500" y1="474" x2="500" y2="448"/>
  <path class="p5" d="M 474 526 L 487 526 L 487 513 L 474 513 L 474 526"/>
  <text x="480" y="521" style="font-size:3px">5,0</text>
  <path class="p5" d="M 487 526 L 500 526 L 500 513 L 487 513 L 487 526"/>
  <text x="493" y="521" style="font-size:3px">5,1</text>
  <path class="p5" d="M 474 513 L 487 513 L 487 500 L 474 500 L 474 513"/>
  <text x="480" y="508" style="font-size:3px">5,2</text>
  <path class="p5" d="M 500 526 L 513 526 L 513 513 L 500 513 L 500 526"/>
  <text x="507" y="521" style="font-size:3px">5,4</text>
  <path class="p5" d="M 513 526 L 526 526 L 526 513 L 513 513 L 513 526"/>
  <text x="520" y="521" style="font-size:3px">5,5</text>
  <path class="p5" d="M 513 513 L 526 513 L 526 500 L 513 500 L 513 513"/>
  <text x="520" y="508" style="font-size:3px">5,7</text>
  <line x1="513" y1="500" x2="526" y2="500"/>
  <path class="p5" d="M 474 500 L 487 500 L 487 487 L 474 487 L 474 500"/>
  <text x="480" y="495" style="font-size:3px">5,8</text>
  <path class="p5" d="M 474 487 L 487 487 L 487 474 L 474 474 L 474 487"/>
  <text x="480" y="482" style="font-size:3px">5,10</text>
  <path class="p5" d="M 487 487 L 500 487 L 500 474 L 487 474 L 487 487"/>
  <text x="493" y="482" style="font-size:3px">5,11</text>
  <line x1="500" y1="487" x2="500" y2="474"/>
  <path class="p6" d="M 487 513 L 493 513 L 493 507 L 487 507 L 487 513"/>
  <text x="490" y="511" style="font-size:2px">6,0</text>
  <path class="p6" d="M 493 513 L 500 513 L 500 507 L 493 507 L 493 513"/>
  <text x="497" y="511" style="font-size:2px">6,1</text>
  <path class="p6" d="M 487 507 L 493 507 L 493 500 L 487 500 L 487 507"/>
  <text x="490" y="504" style="font-size:2px">6,2</text>
  <path class="p6" d="M 500 513 L 507 513 L 507 507 L 500 507 L 500 513"/>
  <text x="503" y="511" style="font-size:2px">6,4</text>
  <path class="p6" d="M 507 513 L 513 513 L 513 507 L 507 507 L 507 513"/>
  <text x="510" y="511" style="font-size:2px">6,5</text>
  <path class="p6" d="M 507 507 L 513 507 L 513 500 L 507 500 L 507 507"/>
  <text x="510" y="504" style="font-size:2px">6,7</text>
  <line x1="507" y1="500" x2="513" y2="500"/>
  <path class="p6" d="M 487 500 L 493 500 L 493 493 L 487 493 L 487 500"/>
  <text x="490" y="498" style="font-size:2px">6,8</text>
  <path class="p6" d="M 487 493 L 493 493 L 493 487 L 487 487 L 487 493"/>
  <text x="490" y="491" style="font-size:2px">6,10</text>
  <path class="p6" d="M 493 493 L 500 493 L 500 487 L 493 487 L 493 493"/>
  <text x="497" y="491" style="font-size:2px">6,11</text>
  <line x1="500" y1="493" x2="500" y2="487"/>
  <path class="p7" d="M 493 507 L 497 507 L 497 503 L 493 503 L 493 507"/>
  <text x="495" y="505" style="font-size:1px">7,0</text>
  <path class="p7" d="M 497 507 L 500 507 L 500 503 L 497 503 L 497 507"/>
  <text x="498" y="505" style="font-size:1px">7,1</text>
  <path class="p7" d="M 493 503 L 497 503 L 497 500 L 493 500 L 493 503"/>
  <text x="495" y="502" style="font-size:1px">7,2</text>
  <path class="p7" d="M 500 507 L 503 507 L 503 503 L 500 503 L 500 507"/>
  <text x="502" y="505" style="font-size:1px">7,4</text>
  <path class="p7" d="M 503 507 L 507 507 L 507 503 L 503 503 L 503 507"/>
  <text x="505" y="505" style="font-size:1px">7,5</text>
  <path class="p7" d="M 503 503 L 507 503 L 507 500 L 503 500 L 503 503"/>
  <text x="505" y="502" style="font-size:1px">7,7</text>
  <line x1="503" y1="500" x2="507" y2="500"/>
  <path class="p7" d="M 493 500 L 497 500 L 497 497 L 493 497 L 493 500"/>
  <text x="495" y="499" style="font-size:1px">7,8</text>
  <path class="p7" d="M 493 497 L 497 497 L 497 493 L 493 493 L 493 497"/>
  <text x="495" y="496" style="font-size:1px">7,10</text>
  <path class="p7" d="M 497 497 L 500 497 L 500 493 L 497 493 L 497 497"/>
  <text x="498" y="496" style="font-size:1px">7,11</text>
  <line x1="500" y1="497" x2="500" y2="493"/>
  <path class="p8" d="M 497 503 L 498 503 L 498 502 L 497 502 L 497 503"/>
  <text x="498" y="502" style="font-size:0px">8,0</text>
  <path class="p8" d="M 498 503 L 500 503 L 500 502 L 498 502 L 498 503"/>
  <text x="499" y="502" style="font-size:0px">8,1</text>
  <path class="p8" d="M 497 502 L 498 502 L 498 500 L 497 500 L 497 502"/>
  <text x="498" y="501" style="font-size:0px">8,2</text>
  <path class="p8" d="M 500 503 L 502 503 L 502 502 L 500 502 L 500 503"/>
  <text x="501" y="502" style="font-size:0px">8,4</text>
  <path class="p8" d="M 502 503 L 503 503 L 503 502 L 502 502 L 502 503"/>
  <text x="502" y="502" style="font-size:0px">8,5</text>
  <path class="p8" d="M 502 502 L 503 502 L 503 500 L 502 500 L 502 502"/>
  <text x="502" y="501" style="font-size:0px">8,7</text>
  <line x1="502" y1="500" x2="503" y2="500"/>
  <path class="p8" d="M 497 500 L 498 500 L 498 498 L 497 498 L 497 500"/>
  <text x="498" y="499" style="font-size:0px">8,8</text>
  <path class="p8" d="M 497 498 L 498 498 L 498 497 L 497 497 L 497 498"/>
  <text x="498" y="498" style="font-size:0px">8,10</text>
  <path class="p8" d="M 498 498 L 500 498 L 500 497 L 498 497 L 498 498"/>
  <text x="499" y="498" style="font-size:0px">8,11</text>
  <line x1="500" y1="498" x2="500" y2="497"/>
  <path class="p9" d="M 498 502 L 499 502 L 499 501 L 498 501 L 498 502"/>
  <text x="499" y="501" style="font-size:0px">9,0</text>
  <path class="p9" d="M 499 502 L 500 502 L 500 501 L 499 501 L 499 502"/>
  <text x="500" y="501" style="font-size:0px">9,1</text>
  <path class="p9" d="M 498 501 L 499 501 L 499 500 L 498 500 L 498 501"/>
  <text x="499" y="500" style="font-size:0px">9,2</text>
  <path class="p9" d="M 500 502 L 501 502 L 501 501 L 500 501 L 500 502"/>
  <text x="500" y="501" style="font-size:0px">9,4</text>
  <path class="p9" d="M 501 502 L 502 502 L 502 501 L 501 501 L 501 502"/>
  <text x="501" y="501" style="font-size:0px">9,5</text>
  <path class="p9" d="M 501 501 L 502 501 L 502 500 L 501 500 L 501 501"/>
  <text x="501" y="500" style="font-size:0px">9,7</text>
  <line x1="501" y1="500" x2="502" y2="500"/>
  <path class="p9" d="M 498 500 L 499 500 L 499 499 L 498 499 L 498 500"/>
  <text x="499" y="500" style="font-size:0px">9,8</text>
  <path class="p9" d="M 498 499 L 499 499 L 499 498 L 498 498 L 498 499"/>
  <text x="499" y="499" style="font-size:0px">9,10</text>
  <path class="p9" d="M 499 499 L 500 499 L 500 498 L 499 498 L 499 499"/>
  <text x="500" y="499" style="font-size:0px">9,11</text>
  <line x1="500" y1="499" x2="500" y2="498"/>
  <path class="p10" d="M 499 501 L 500 501 L 500 500 L 499 500 L 499 501"/>
  <text x="499" y="501" style="font-size:0px">10,0</text>
  <path class="p10" d="M 500 501 L 500 501 L 500 500 L 500 500 L 500 501"/>
  <text x="500" y="501" style="font-size:0px">10,1</text>
  <path class="p10" d="M 499 500 L 500 500 L 500 500 L 499 500 L 499 500"/>
  <text x="499" y="500" style="font-size:0px">10,2</text>
  <path class="p10" d="M 500 501 L 500 501 L 500 500 L 500 500 L 500 501"/>
  <text x="500" y="501" style="font-size:0px">10,4</text>
  <path class="p10" d="M 500 501 L 501 501 L 501 500 L 500 500 L 500 501"/>
  <text x="501" y="501" style="font-size:0px">10,5</text>
  <path class="p10" d="M 500 500 L 501 500 L 501 500 L 500 500 L 500 500"/>
  <text x="501" y="500" style="font-size:0px">10,7</text>
  <line x1="500" y1="500" x2="501" y2="500"/>
  <path class="p10" d="M 499 500 L 500 500 L 500 500 L 499 500 L 499 500"/>
  <text x="499" y="500" style="font-size:0px">10,8</text>
  <path class="p10" d="M 499 500 L 500 500 L 500 499 L 499 499 L 499 500"/>
  <text x="499" y="499" style="font-size:0px">10,10</text>
  <path class="p10" d="M 500 500 L 500 500 L 500 499 L 500 499 L 500 500"/>
  <text x="500" y="499" style="font-size:0px">10,11</text>
  <line x1="500" y1="500" x2="500" y2="499"/>
  <path class="p11" d="M 500 500 L 500 500 L 500 500 L 500 500 L 500 500"/>
  <text x="500" y="500" style="font-size:0px">11,0</text>
  <path class="p11" d="M 500 500 L 500 500 L 500 500 L 500 500 L 500 500"/>
  <text x="500" y="500" style="font-size:0px">11,1</text>
  <path class="p11" d="M 500 500 L 500 500 L 500 500 L 500 500 L 500 500"/>
  <text x="500" y="500" style="font-size:0px">11,2</text>
  <path class="p11" d="M 500 500 L 500 500 L 500 500 L 500 500 L 500 500"/>
  <text x="500" y="500" style="font-size:0px">11,3</text>
  <path class="p11" d="M 500 500 L 500 500 L 500 500 L 500 500 L 500 500"/>
  <text x="500" y="500" style="font-size:0px">11,4</text>
  <path class="p11" d="M 500 500 L 500 500 L 500 500 L 500 500 L 500 500"/>
  <text x="500" y="500" style="font-size:0px">11,5</text>
  <path class="p11" d="M 500 500 L 500 500 L 500 500 L 500 500 L 500 500"/>
  <text x="500" y="500" style="font-size:0px">11,6</text>
  <line x1="500" y1="500" x2="500" y2="500"/>
  <path class="p11" d="M 500 500 L 500 500 L 500 500 L 500 500 L 500 500"/>
  <text x="500" y="500" style="font-size:0px">11,7</text>
  <line x1="500" y1="500" x2="500" y2="500"/>
  <path class="p11" d="M 500 500 L 500 500 L 500 500 L 500 500 L 500 500"/>
  <text x="500" y="500" style="font-size:0px">11,8</text>
  <path class="p11" d="M 500 500 L 500 500 L 500 500 L 500 500 L 500 500"/>
  <text x="500" y="500" style="font-size:0px">11,9</text>
  <line x1="500" y1="500" x2="500" y2="500"/>
  <path class="p11" d="M 500 500 L 500 500 L 500 500 L 500 500 L 500 500"/>
  <text x="500" y="500" style="font-size:0px">11,10</text>
  <path class="p11" d="M 500 500 L 500 500 L 500 500 L 500 500 L 500 500"/>
  <text x="500" y="500" style="font-size:0px">11,11</text>
  <line x1="500" y1="500" x2="500" y2="500"/>

 <!-- legend -->
 <rect x="1000" y="80" width="320" height="165"/>
 <text x="1013" y="107" style="text-anchor:start; font-weight:bold; font-size:18px">cell label</text>
  <text x="1020" y="134" style="text-anchor:start; font-style:oblique; font-size:18px">level_number,</text>
  <text x="1020" y="161" style="text-anchor:start; font-style:oblique; font-size:18px">cell_index</text>
  <text x="1000" y="274" style="text-anchor:start; font-size:18px">azimuth: 0°, polar: 0°</text>

 <!-- colorbar -->
 <text x="1000" y="356" style="text-anchor:start; font-weight:bold; font-size:18px">level_number</text>
  <rect class="r0" x="1000" y="865" width="25" height="45"/>
  <text x="1037.5" y="893.5" style="text-anchor:start; font-size:18px; font-weight:bold">0 min</text>
  <rect class="r1" x="1000" y="820" width="25" height="45"/>
  <text x="1037.5" y="848.5" style="text-anchor:start; font-size:18px">1</text>
  <rect class="r2" x="1000" y="775" width="25" height="45"/>
  <text x="1037.5" y="803.5" style="text-anchor:start; font-size:18px">2</text>
  <rect class="r3" x="1000" y="730" width="25" height="45"/>
  <text x="1037.5" y="758.5" style="text-anchor:start; font-size:18px">3</text>
  <rect class="r4" x="1000" y="685" width="25" height="45"/>
  <text x="1037.5" y="713.5" style="text-anchor:start; font-size:18px">4</text>
  <rect class="r5" x="1000" y="640" width="25" height="45"/>
  <text x="1037.5" y="668.5" style="text-anchor:start; font-size:18px">5</text>
  <rect class="r6" x="1000" y="595" width="25" height="45"/>
  <text x="1037.5" y="623.5" style="text-anchor:start; font-size:18px">6</text>
  <rect class="r7" x="1000" y="550" width="25" height="45"/>
  <text x="1037.5" y="578.5" style="text-anchor:start; font-size:18px">7</text>
  <rect class="r8" x="1000" y="505" width="25" height="45"/>
  <text x="1037.5" y="533.5" style="text-anchor:start; font-size:18px">8</text>
  <rect class="r9" x="1000" y="460" width="25" height="45"/>
  <text x="1037.5" y="488.5" style="text-anchor:start; font-size:18px">9</text>
  <rect class="r10" x="1000" y="415" width="25" height="45"/>
  <text x="1037.5" y="443.5" style="text-anchor:start; font-size:18px">10</text>
  <rect class="r11" x="1000" y="370" width="25" height="45"/>
  <text x="1037.5" y="398.5" style="text-anchor:start; font-size:18px; font-weight:bold">11 max</text>

</svg>