<svg width="1400" height="1000" xmlns="http://www.w3.org/2000/svg" version="1.1">


<!-- internal style sheet -->
<style type="text/css"><![CDATA[
 rect.background{fill:white}
 rect{fill:none; stroke:rgb(25,25,25); stroke-width:2}
 text{font-family:Helvetica; text-anchor:middle; fill:rgb(25,25,25)}
 line{stroke:rgb(25,25,25); stroke-width:4}
 path{fill:none; stroke:rgb(25,25,25); stroke-width:2}

 path.p0{fill:rgb(0,102,255); stroke:rgb(25,25,25); stroke-width:2}
 path.ps0{fill:rgb(0,77,191); stroke:rgb(20,20,20); stroke-width:2}
 rect.r0{fill:rgb(0,102,255); stroke:rgb(25,25,25); stroke-width:2}
 path.p1{fill:rgb(51,255,0); stroke:rgb(25,25,25); stroke-width:2}
 path.ps1{fill:rgb(38,191,0); stroke:rgb(20,20,20); stroke-width:2}
 rect.r1{fill:rgb(51,255,0); stroke:rgb(25,25,25); stroke-width:2}
 path.p2{fill:rgb(255,0,0); stroke:rgb(25,25,25); stroke-width:2}
 path.ps2{fill:rgb(191,0,0); stroke:rgb(20,20,20); stroke-width:2}
 rect.r2{fill:rgb(255,0,0); stroke:rgb(25,25,25); stroke-width:2}
]]></style>

 <rect class="background" width="1000" height="1000"/>
  <!-- cells -->
  <path class="p1" d="M 290 710 L 500 710 L 500 500 L 290 500 L 290 710"/>
  <text x="395" y="632" style="font-size:53px">1,3</text>
  <path class="p1" d="M 500 710 L 710 710 L 710 500 L 500 500 L 500 710"/>
  <text x="605" y="632" style="font-size:53px">1,6</text>
  <line x1="500" y1="500" x2="710" y2="500"/>
  <path class="p1" d="M 290 500 L 500 500 L 500 290 L 290 290 L 290 500"/>
  <text x="395" y="422" style="font-size:53px">1,9</text>
  <line x1="500" y1="500" x2="500" y2="290"/>
  <path class="p2" d="M 80 920 L 185 920 L 185 815 L 80 815 L 80 920"/>
  <text x="133" y="880" style="font-size:24px">2,0</text>
  <line x1="80" y1="920" x2="80" y2="815"/>
  <line x1="80" y1="920" x2="185" y2="920"/>
  <path class="p2" d="M 185 920 L 290 920 L 290 815 L 185 815 L 185 920"/>
  <text x="238" y="880" style="font-size:24px">2,1</text>
  <line x1="185" y1="920" x2="290" y2="920"/>
  <path class="p2" d="M 80 815 L 185 815 L 185 710 L 80 710 L 80 815"/>
  <text x="133" y="775" style="font-size:24px">2,2</text>
  <line x1="80" y1="815" x2="80" y2="710"/>
  <path class="p2" d="M 185 815 L 290 815 L 290 710 L 185 710 L 185 815"/>
  <text x="238" y="775" style="font-size:25px">2,3</text>
  <path class="p2" d="M 290 920 L 395 920 L 395 815 L 290 815 L 290 920"/>
  <text x="343" y="880" style="font-size:25px">2,4</text>
  <line x1="290" y1="920" x2="395" y2="920"/>
  <path class="p2" d="M 395 920 L 500 920 L 500 815 L 395 815 L 395 920"/>
  <text x="448" y="880" style="font-size:25px">2,5</text>
  <line x1="395" y1="920" x2="500" y2="920"/>
  <path class="p2" d="M 290 815 L 395 815 L 395 710 L 290 710 L 290 815"/>
  <text x="343" y="775" style="font-size:25px">2,6</text>
  <path class="p2" d="M 395 815 L 500 815 L 500 710 L 395 710 L 395 815"/>
  <text x="448" y="776" style="font-size:26px">2,7</text>
  <path class="p2" d="M 80 710 L 185 710 L 185 605 L 80 605 L 80 710"/>
  <text x="133" y="670" style="font-size:25px">2,8</text>
  <line x1="80" y1="710" x2="80" y2="605"/>
  <path class="p2" d="M 185 710 L 290 710 L 290 605 L 185 605 L 185 710"/>
  <text x="238" y="670" style="font-size:25px">2,9</text>
  <path class="p2" d="M 80 605 L 185 605 L 185 500 L 80 500 L 80 605"/>
  <text x="133" y="565" style="font-size:25px">2,10</text>
  <line x1="80" y1="605" x2="80" y2="500"/>
  <path class="p2" d="M 185 605 L 290 605 L 290 500 L 185 500 L 185 605"/>
  <text x="238" y="566" style="font-size:26px">2,11</text>
  <path class="p2" d="M 500 920 L 605 920 L 605 815 L 500 815 L 500 920"/>
  <text x="553" y="880" style="font-size:25px">2,12</text>
  <line x1="500" y1="920" x2="605" y2="920"/>
  <path class="p2" d="M 605 920 L 710 920 L 710 815 L 605 815 L 605 920"/>
  <text x="658" y="880" style="font-size:25px">2,13</text>
  <line x1="605" y1="920" x2="710" y2="920"/>
  <path class="p2" d="M 500 815 L 605 815 L 605 710 L 500 710 L 500 815"/>
  <text x="553" y="776" style="font-size:26px">2,14</text>
  <path class="p2" d="M 605 815 L 710 815 L 710 710 L 605 710 L 605 815"/>
  <text x="658" y="775" style="font-size:25px">2,15</text>
  <path class="p2" d="M 710 920 L 815 920 L 815 815 L 710 815 L 710 920"/>
  <text x="763" y="880" style="font-size:24px">2,16</text>
  <line x1="710" y1="920" x2="815" y2="920"/>
  <path class="p2" d="M 815 920 L 920 920 L 920 815 L 815 815 L 815 920"/>
  <text x="868" y="880" style="font-size:24px">2,17</text>
  <line x1="920" y1="920" x2="920" y2="815"/>
  <line x1="815" y1="920" x2="920" y2="920"/>
  <path class="p2" d="M 710 815 L 815 815 L 815 710 L 710 710 L 710 815"/>
  <text x="763" y="775" style="font-size:25px">2,18</text>
  <path class="p2" d="M 815 815 L 920 815 L 920 710 L 815 710 L 815 815"/>
  <text x="868" y="775" style="font-size:24px">2,19</text>
  <line x1="920" y1="815" x2="920" y2="710"/>
  <path class="p2" d="M 710 710 L 815 710 L 815 605 L 710 605 L 710 710"/>
  <text x="763" y="670" style="font-size:25px">2,20</text>
  <path class="p2" d="M 815 710 L 920 710 L 920 605 L 815 605 L 815 710"/>
  <text x="868" y="670" style="font-size:25px">2,21</text>
  <line x1="920" y1="710" x2="920" y2="605"/>
  <path class="p2" d="M 710 605 L 815 605 L 815 500 L 710 500 L 710 605"/>
  <text x="763" y="566" style="font-size:26px">2,22</text>
  <line x1="710" y1="500" x2="815" y2="500"/>
  <path class="p2" d="M 815 605 L 920 605 L 920 500 L 815 500 L 815 605"/>
  <text x="868" y="565" style="font-size:25px">2,23</text>
  <line x1="920" y1="605" x2="920" y2="500"/>
  <line x1="815" y1="500" x2="920" y2="500"/>
  <path class="p2" d="M 80 500 L 185 500 L 185 395 L 80 395 L 80 500"/>
  <text x="133" y="460" style="font-size:25px">2,24</text>
  <line x1="80" y1="500" x2="80" y2="395"/>
  <path class="p2" d="M 185 500 L 290 500 L 290 395 L 185 395 L 185 500"/>
  <text x="238" y="461" style="font-size:26px">2,25</text>
  <path class="p2" d="M 80 395 L 185 395 L 185 290 L 80 290 L 80 395"/>
  <text x="133" y="355" style="font-size:25px">2,26</text>
  <line x1="80" y1="395" x2="80" y2="290"/>
  <path class="p2" d="M 185 395 L 290 395 L 290 290 L 185 290 L 185 395"/>
  <text x="238" y="355" style="font-size:25px">2,27</text>
  <path class="p2" d="M 80 290 L 185 290 L 185 185 L 80 185 L 80 290"/>
  <text x="133" y="250" style="font-size:24px">2,28</text>
  <line x1="80" y1="290" x2="80" y2="185"/>
  <path class="p2" d="M 185 290 L 290 290 L 290 185 L 185 185 L 185 290"/>
  <text x="238" y="250" style="font-size:25px">2,29</text>
  <path class="p2" d="M 80 185 L 185 185 L 185 80 L 80 80 L 80 185"/>
  <text x="133" y="145" style="font-size:24px">2,30</text>
  <line x1="80" y1="185" x2="80" y2="80"/>
  <line x1="80" y1="80" x2="185" y2="80"/>
  <path class="p2" d="M 185 185 L 290 185 L 290 80 L 185 80 L 185 185"/>
  <text x="238" y="145" style="font-size:24px">2,31</text>
  <line x1="185" y1="80" x2="290" y2="80"/>
  <path class="p2" d="M 290 290 L 395 290 L 395 185 L 290 185 L 290 290"/>
  <text x="343" y="250" style="font-size:25px">2,32</text>
  <path class="p2" d="M 395 290 L 500 290 L 500 185 L 395 185 L 395 290"/>
  <text x="448" y="251" style="font-size:26px">2,33</text>
  <line x1="500" y1="290" x2="500" y2="185"/>
  <path class="p2" d="M 290 185 L 395 185 L 395 80 L 290 80 L 290 185"/>
  <text x="343" y="145" style="font-size:25px">2,34</text>
  <line x1="290" y1="80" x2="395" y2="80"/>
  <path class="p2" d="M 395 185 L 500 185 L 500 80 L 395 80 L 395 185"/>
  <text x="448" y="145" style="font-size:25px">2,35</text>
  <line x1="500" y1="185" x2="500" y2="80"/>
  <line x1="395" y1="80" x2="500" y2="80"/>

 <!-- legend -->
 <rect x="1000" y="80" width="320" height="165"/>
 <text x="1013" y="107" style="text-anchor:start; font-weight:bold; font-size:18px">cell label</text>
  <text x="1020" y="134" style="text-anchor:start; font-style:oblique; font-size:18px">level_number,</text>
  <text x="1020" y="161" style="text-anchor:start; font-style:oblique; font-size:18px">cell_index</text>
  <text x="1000" y="274" style="text-anchor:start; font-size:18px">azimuth: 0°, polar: 0°</text>

 <!-- colorbar -->
 <text x="1000" y="356" style="text-anchor:start; font-weight:bold; font-size:18px">level_number</text>
  <rect class="r0" x="1000" y="736" width="25" height="183"/>
  <text x="1037.5" y="833.5" style="text-anchor:start; font-size:18px; font-weight:bold">0 min</text>
  <rect class="r1" x="1000" y="553" width="25" height="183"/>
  <text x="1037.5" y="650.5" style="text-anchor:start; font-size:18px">1</text>
  <rect class="r2" x="1000" y="370" width="25" height="183"/>
  <text x="1037.5" y="467.5" style="text-anchor:start; font-size:18px; font-weight:bold">2 max</text>

</svg>