<svg width="1400" height="1000" xmlns="http://www.w3.org/2000/svg" version="1.1">


<!-- internal style sheet -->
<style type="text/css"><![CDATA[
 rect.background{fill:white}
 rect{fill:none; stroke:rgb(25,25,25); stroke-width:2}
 text{font-family:Helvetica; text-anchor:middle; fill:rgb(25,25,25)}
 line{stroke:rgb(25,25,25); stroke-width:4}
 path{fill:none; stroke:rgb(25,25,25); stroke-width:2}

 path.p0{fill:rgb(0,102,255); stroke:rgb(25,25,25); stroke-width:2}
 path.ps0{fill:rgb(0,77,191); stroke:rgb(20,20,20); stroke-width:2}
 rect.r0{fill:rgb(0,102,255); stroke:rgb(25,25,25); stroke-width:2}
 path.p1{fill:rgb(255,0,0); stroke:rgb(25,25,25); stroke-width:2}
 path.ps1{fill:rgb(191,0,0); stroke:rgb(20,20,20); stroke-width:2}
 rect.r1{fill:rgb(255,0,0); stroke:rgb(25,25,25); stroke-width:2}
]]></style>

 <rect class="background" width="1000" height="1000"/>
  <!-- cells -->
  <path class="p1" d="M 203 797 L 500 920 L 500 772 L 290 710 L 203 797"/>
  <text x="373" y="815" style="font-size:30px">1,0</text>
  <line x1="203" y1="797" x2="500" y2="920"/>
  <path class="p1" d="M 500 920 L 797 797 L 710 710 L 500 772 L 500 920"/>
  <text x="627" y="815" style="font-size:30px">1,1</text>
  <line x1="500" y1="920" x2="797" y2="797"/>
  <path class="p1" d="M 290 710 L 500 772 L 500 623 L 377 623 L 290 710"/>
  <text x="417" y="697" style="font-size:31px">1,2</text>
  <path class="p1" d="M 500 772 L 710 710 L 623 623 L 500 623 L 500 772"/>
  <text x="583" y="697" style="font-size:31px">1,3</text>
  <path class="p1" d="M 203 797 L 290 710 L 228 500 L 80 500 L 203 797"/>
  <text x="200" y="642" style="font-size:30px">1,4</text>
  <line x1="203" y1="797" x2="80" y2="500"/>
  <path class="p1" d="M 290 710 L 377 623 L 377 500 L 228 500 L 290 710"/>
  <text x="318" y="599" style="font-size:31px">1,5</text>
  <path class="p1" d="M 80 500 L 228 500 L 290 290 L 203 203 L 80 500"/>
  <text x="200" y="388" style="font-size:30px">1,6</text>
  <line x1="80" y1="500" x2="203" y2="203"/>
  <path class="p1" d="M 228 500 L 377 500 L 377 377 L 290 290 L 228 500"/>
  <text x="318" y="432" style="font-size:31px">1,7</text>
  <path class="p1" d="M 377 623 L 500 623 L 500 500 L 377 500 L 377 623"/>
  <text x="438" y="577" style="font-size:31px">1,8</text>
  <path class="p1" d="M 500 623 L 623 623 L 623 500 L 500 500 L 500 623"/>
  <text x="562" y="577" style="font-size:31px">1,9</text>
  <path class="p1" d="M 377 500 L 500 500 L 500 377 L 377 377 L 377 500"/>
  <text x="438" y="454" style="font-size:31px">1,10</text>
  <path class="p1" d="M 500 500 L 623 500 L 623 377 L 500 377 L 500 500"/>
  <text x="562" y="454" style="font-size:31px">1,11</text>
  <path class="p1" d="M 797 797 L 920 500 L 772 500 L 710 710 L 797 797"/>
  <text x="800" y="642" style="font-size:30px">1,12</text>
  <line x1="797" y1="797" x2="920" y2="500"/>
  <path class="p1" d="M 920 500 L 797 203 L 710 290 L 772 500 L 920 500"/>
  <text x="800" y="388" style="font-size:30px">1,13</text>
  <line x1="920" y1="500" x2="797" y2="203"/>
  <path class="p1" d="M 710 710 L 772 500 L 623 500 L 623 623 L 710 710"/>
  <text x="682" y="599" style="font-size:31px">1,14</text>
  <path class="p1" d="M 772 500 L 710 290 L 623 377 L 623 500 L 772 500"/>
  <text x="682" y="432" style="font-size:31px">1,15</text>
  <path class="p1" d="M 203 203 L 290 290 L 500 228 L 500 80 L 203 203"/>
  <text x="373" y="215" style="font-size:30px">1,16</text>
  <line x1="203" y1="203" x2="500" y2="80"/>
  <path class="p1" d="M 290 290 L 377 377 L 500 377 L 500 228 L 290 290"/>
  <text x="417" y="334" style="font-size:31px">1,17</text>
  <path class="p1" d="M 500 80 L 500 228 L 710 290 L 797 203 L 500 80"/>
  <text x="627" y="215" style="font-size:30px">1,18</text>
  <line x1="500" y1="80" x2="797" y2="203"/>
  <path class="p1" d="M 500 228 L 500 377 L 623 377 L 710 290 L 500 228"/>
  <text x="583" y="334" style="font-size:31px">1,19</text>

 <!-- legend -->
 <rect x="1000" y="80" width="320" height="165"/>
 <text x="1013" y="107" style="text-anchor:start; font-weight:bold; font-size:18px">cell label</text>
  <text x="1020" y="134" style="text-anchor:start; font-style:oblique; font-size:18px">level_number,</text>
  <text x="1020" y="161" style="text-anchor:start; font-style:oblique; font-size:18px">cell_index</text>
  <text x="1000" y="274" style="text-anchor:start; font-size:18px">azimuth: 0°, polar: 0°</text>

 <!-- colorbar -->
 <text x="1000" y="356" style="text-anchor:start; font-weight:bold; font-size:18px">level_number</text>
  <rect class="r0" x="1000" y="645" width="25" height="275"/>
  <text x="1037.5" y="788.5" style="text-anchor:start; font-size:18px; font-weight:bold">0 min</text>
  <rect class="r1" x="1000" y="370" width="25" height="275"/>
  <text x="1037.5" y="513.5" style="text-anchor:start; font-size:18px; font-weight:bold">1 max</text>

</svg>