<svg width="1400" height="1000" xmlns="http://www.w3.org/2000/svg" version="1.1">


<!-- internal style sheet -->
<style type="text/css"><![CDATA[
 rect.background{fill:white}
 rect{fill:none; stroke:rgb(25,25,25); stroke-width:2}
 text{font-family:Helvetica; text-anchor:middle; fill:rgb(25,25,25)}
 line{stroke:rgb(25,25,25); stroke-width:4}
 path{fill:none; stroke:rgb(25,25,25); stroke-width:2}

 path.p0{fill:rgb(0,102,255); stroke:rgb(25,25,25); stroke-width:2}
 path.ps0{fill:rgb(0,77,191); stroke:rgb(20,20,20); stroke-width:2}
 rect.r0{fill:rgb(0,102,255); stroke:rgb(25,25,25); stroke-width:2}
 path.p1{fill:rgb(255,0,0); stroke:rgb(25,25,25); stroke-width:2}
 path.ps1{fill:rgb(191,0,0); stroke:rgb(20,20,20); stroke-width:2}
 rect.r1{fill:rgb(255,0,0); stroke:rgb(25,25,25); stroke-width:2}
]]></style>

 <rect class="background" width="1000" height="1000"/>
  <!-- cells -->
  <path class="p1" d="M 80 920 L 290 920 L 290 710 L 80 710 L 80 920"/>
  <text x="185" y="840" style="font-size:49px">1,0</text>
  <line x1="80" y1="920" x2="80" y2="710"/>
  <line x1="80" y1="920" x2="290" y2="920"/>
  <path class="p1" d="M 290 920 L 500 920 L 500 710 L 290 710 L 290 920"/>
  <text x="395" y="841" style="font-size:51px">1,1</text>
  <line x1="290" y1="920" x2="500" y2="920"/>
  <path class="p1" d="M 80 710 L 290 710 L 290 500 L 80 500 L 80 710"/>
  <text x="185" y="631" style="font-size:51px">1,2</text>
  <line x1="80" y1="710" x2="80" y2="500"/>
  <path class="p1" d="M 290 710 L 500 710 L 500 500 L 290 500 L 290 710"/>
  <text x="395" y="632" style="font-size:53px">1,3</text>
  <path class="p1" d="M 500 920 L 710 920 L 710 710 L 500 710 L 500 920"/>
  <text x="605" y="841" style="font-size:51px">1,4</text>
  <line x1="500" y1="920" x2="710" y2="920"/>
  <path class="p1" d="M 710 920 L 920 920 L 920 710 L 710 710 L 710 920"/>
  <text x="815" y="840" style="font-size:49px">1,5</text>
  <line x1="920" y1="920" x2="920" y2="710"/>
  <line x1="710" y1="920" x2="920" y2="920"/>
  <path class="p1" d="M 500 710 L 710 710 L 710 500 L 500 500 L 500 710"/>
  <text x="605" y="632" style="font-size:53px">1,6</text>
  <line x1="500" y1="500" x2="710" y2="500"/>
  <path class="p1" d="M 710 710 L 920 710 L 920 500 L 710 500 L 710 710"/>
  <text x="815" y="631" style="font-size:51px">1,7</text>
  <line x1="920" y1="710" x2="920" y2="500"/>
  <line x1="710" y1="500" x2="920" y2="500"/>
  <path class="p1" d="M 80 500 L 290 500 L 290 290 L 80 290 L 80 500"/>
  <text x="185" y="421" style="font-size:51px">1,8</text>
  <line x1="80" y1="500" x2="80" y2="290"/>
  <path class="p1" d="M 290 500 L 500 500 L 500 290 L 290 290 L 290 500"/>
  <text x="395" y="422" style="font-size:53px">1,9</text>
  <line x1="500" y1="500" x2="500" y2="290"/>
  <path class="p1" d="M 80 290 L 290 290 L 290 80 L 80 80 L 80 290"/>
  <text x="185" y="210" style="font-size:49px">1,10</text>
  <line x1="80" y1="290" x2="80" y2="80"/>
  <line x1="80" y1="80" x2="290" y2="80"/>
  <path class="p1" d="M 290 290 L 500 290 L 500 80 L 290 80 L 290 290"/>
  <text x="395" y="211" style="font-size:51px">1,11</text>
  <line x1="500" y1="290" x2="500" y2="80"/>
  <line x1="290" y1="80" x2="500" y2="80"/>

 <!-- legend -->
 <rect x="1000" y="80" width="320" height="165"/>
 <text x="1013" y="107" style="text-anchor:start; font-weight:bold; font-size:18px">cell label</text>
  <text x="1020" y="134" style="text-anchor:start; font-style:oblique; font-size:18px">level_number,</text>
  <text x="1020" y="161" style="text-anchor:start; font-style:oblique; font-size:18px">cell_index</text>
  <text x="1000" y="274" style="text-anchor:start; font-size:18px">azimuth: 0°, polar: 0°</text>

 <!-- colorbar -->
 <text x="1000" y="356" style="text-anchor:start; font-weight:bold; font-size:18px">level_number</text>
  <rect class="r0" x="1000" y="645" width="25" height="275"/>
  <text x="1037.5" y="788.5" style="text-anchor:start; font-size:18px; font-weight:bold">0 min</text>
  <rect class="r1" x="1000" y="370" width="25" height="275"/>
  <text x="1037.5" y="513.5" style="text-anchor:start; font-size:18px; font-weight:bold">1 max</text>

</svg>